<svg width="390" height="844" viewBox="0 0 390 844" fill="none" xmlns="http://www.w3.org/2000/svg">
  <rect width="390" height="844" fill="#F6F8F7"/>
  <rect width="390" height="96" fill="#12343B"/>
  <text x="24" y="58" fill="white" font-family="Arial" font-size="24" font-weight="700">Offline Sync</text>
  <text x="24" y="86" fill="#D7F0E4" font-family="Arial" font-size="14">Queue, upload, purge</text>
  <rect x="24" y="126" width="132" height="32" rx="8" fill="#D8E3E0"/>
  <text x="40" y="147" fill="#12343B" font-family="Arial" font-size="13" font-weight="700">Queue encrypted</text>
  <text x="24" y="204" fill="#12343B" font-family="Arial" font-size="26" font-weight="800">Sync Dashboard</text>
  <rect x="24" y="240" width="342" height="92" rx="8" fill="#FFFFFF" stroke="#D8E3E0"/>
  <text x="44" y="276" fill="#35545B" font-family="Arial" font-size="14">Queued events</text>
  <text x="44" y="314" fill="#12343B" font-family="Arial" font-size="34" font-weight="800">18</text>
  <rect x="24" y="356" width="342" height="92" rx="8" fill="#FFFFFF" stroke="#D8E3E0"/>
  <text x="44" y="392" fill="#35545B" font-family="Arial" font-size="14">Uploaded</text>
  <text x="44" y="430" fill="#12343B" font-family="Arial" font-size="34" font-weight="800">12</text>
  <rect x="24" y="472" width="342" height="92" rx="8" fill="#FFFFFF" stroke="#D8E3E0"/>
  <text x="44" y="508" fill="#35545B" font-family="Arial" font-size="14">Purged locally</text>
  <text x="44" y="546" fill="#12343B" font-family="Arial" font-size="34" font-weight="800">12</text>
  <path d="M74 656H316" stroke="#9BB5AF" stroke-width="6" stroke-linecap="round"/>
  <circle cx="90" cy="656" r="14" fill="#1F7A5A"/>
  <circle cx="195" cy="656" r="14" fill="#1F7A5A"/>
  <circle cx="300" cy="656" r="14" fill="#FFE1B3"/>
  <text x="60" y="700" fill="#35545B" font-family="Arial" font-size="13">Queue</text>
  <text x="170" y="700" fill="#35545B" font-family="Arial" font-size="13">Upload</text>
  <text x="280" y="700" fill="#35545B" font-family="Arial" font-size="13">Purge</text>
  <rect x="24" y="752" width="342" height="52" rx="8" fill="#1F7A5A"/>
  <text x="132" y="784" fill="white" font-family="Arial" font-size="16" font-weight="700">Run Sync Check</text>
</svg>
